<mxfile host="app.diagrams.net" agent="Mozilla/5.0 (Windows NT 10.0; Win64; x64; rv:129.0) Gecko/20100101 Firefox/129.0" version="24.7.7">
  <diagram name="Page-1" id="WYeLAgNmrr5IrH1KljO8">
    <mxGraphModel dx="1185" dy="442" grid="1" gridSize="10" guides="1" tooltips="1" connect="1" arrows="1" fold="1" page="1" pageScale="1" pageWidth="827" pageHeight="1169" math="0" shadow="0">
      <root>
        <mxCell id="0" />
        <mxCell id="1" parent="0" />
        <mxCell id="JAy8X70x3TuNzc0FsqqA-23" value="" style="shape=trapezoid;perimeter=trapezoidPerimeter;whiteSpace=wrap;html=1;fixedSize=1;rotation=90;" vertex="1" parent="1">
          <mxGeometry x="296" y="324" width="100" height="30" as="geometry" />
        </mxCell>
        <mxCell id="JAy8X70x3TuNzc0FsqqA-21" style="edgeStyle=orthogonalEdgeStyle;rounded=0;orthogonalLoop=1;jettySize=auto;html=1;exitX=1;exitY=0.5;exitDx=0;exitDy=0;exitPerimeter=0;entryX=0.75;entryY=1;entryDx=0;entryDy=0;" edge="1" parent="1" source="JAy8X70x3TuNzc0FsqqA-4" target="JAy8X70x3TuNzc0FsqqA-18">
          <mxGeometry relative="1" as="geometry">
            <Array as="points">
              <mxPoint x="280" y="430" />
              <mxPoint x="280" y="355" />
            </Array>
          </mxGeometry>
        </mxCell>
        <mxCell id="JAy8X70x3TuNzc0FsqqA-4" value="" style="verticalLabelPosition=bottom;shadow=0;dashed=0;align=center;html=1;verticalAlign=top;shape=mxgraph.electrical.logic_gates.lowpass_filter;points=[[0,0.5,0,0,0],[0.5,1,0,0,0],[1,0.5,0,0,0]];fillColor=#d5e8d4;strokeColor=#000000;" vertex="1" parent="1">
          <mxGeometry x="160" y="400" width="80" height="60" as="geometry" />
        </mxCell>
        <mxCell id="JAy8X70x3TuNzc0FsqqA-5" value="" style="shape=waypoint;sketch=0;fillStyle=solid;size=6;pointerEvents=1;points=[];fillColor=none;resizable=0;rotatable=0;perimeter=centerPerimeter;snapToPoint=1;" vertex="1" parent="1">
          <mxGeometry x="50" y="320" width="20" height="20" as="geometry" />
        </mxCell>
        <mxCell id="JAy8X70x3TuNzc0FsqqA-6" style="edgeStyle=orthogonalEdgeStyle;rounded=0;orthogonalLoop=1;jettySize=auto;html=1;entryX=0;entryY=0.5;entryDx=0;entryDy=0;entryPerimeter=0;fillColor=#0050ef;strokeColor=#001DBC;" edge="1" parent="1" source="JAy8X70x3TuNzc0FsqqA-5" target="JAy8X70x3TuNzc0FsqqA-16">
          <mxGeometry relative="1" as="geometry">
            <mxPoint x="160" y="230" as="targetPoint" />
          </mxGeometry>
        </mxCell>
        <mxCell id="JAy8X70x3TuNzc0FsqqA-7" style="edgeStyle=orthogonalEdgeStyle;rounded=0;orthogonalLoop=1;jettySize=auto;html=1;entryX=0;entryY=0.5;entryDx=0;entryDy=0;entryPerimeter=0;fillColor=#0050ef;strokeColor=#001DBC;" edge="1" parent="1" source="JAy8X70x3TuNzc0FsqqA-5" target="JAy8X70x3TuNzc0FsqqA-15">
          <mxGeometry relative="1" as="geometry">
            <mxPoint x="160" y="330" as="targetPoint" />
          </mxGeometry>
        </mxCell>
        <mxCell id="JAy8X70x3TuNzc0FsqqA-8" style="edgeStyle=orthogonalEdgeStyle;rounded=0;orthogonalLoop=1;jettySize=auto;html=1;entryX=0;entryY=0.5;entryDx=0;entryDy=0;entryPerimeter=0;fillColor=#0050ef;strokeColor=#001DBC;" edge="1" parent="1" source="JAy8X70x3TuNzc0FsqqA-5" target="JAy8X70x3TuNzc0FsqqA-4">
          <mxGeometry relative="1" as="geometry" />
        </mxCell>
        <mxCell id="JAy8X70x3TuNzc0FsqqA-9" value="i_data_IQ" style="text;html=1;align=center;verticalAlign=middle;resizable=0;points=[];autosize=1;strokeColor=none;fillColor=none;" vertex="1" parent="1">
          <mxGeometry x="40" y="300" width="80" height="30" as="geometry" />
        </mxCell>
        <mxCell id="JAy8X70x3TuNzc0FsqqA-10" value="i_dia" style="text;html=1;align=center;verticalAlign=middle;resizable=0;points=[];autosize=1;strokeColor=none;fillColor=none;" vertex="1" parent="1">
          <mxGeometry x="110" y="510" width="50" height="30" as="geometry" />
        </mxCell>
        <mxCell id="JAy8X70x3TuNzc0FsqqA-13" style="edgeStyle=orthogonalEdgeStyle;rounded=0;orthogonalLoop=1;jettySize=auto;html=1;entryX=0.5;entryY=1;entryDx=0;entryDy=0;entryPerimeter=0;fillColor=#008a00;strokeColor=#005700;" edge="1" parent="1" source="JAy8X70x3TuNzc0FsqqA-11" target="JAy8X70x3TuNzc0FsqqA-4">
          <mxGeometry relative="1" as="geometry">
            <mxPoint x="190" y="490" as="targetPoint" />
            <Array as="points">
              <mxPoint x="140" y="480" />
              <mxPoint x="200" y="480" />
            </Array>
          </mxGeometry>
        </mxCell>
        <mxCell id="JAy8X70x3TuNzc0FsqqA-11" value="" style="shape=waypoint;sketch=0;fillStyle=solid;size=6;pointerEvents=1;points=[];fillColor=none;resizable=0;rotatable=0;perimeter=centerPerimeter;snapToPoint=1;" vertex="1" parent="1">
          <mxGeometry x="130" y="500" width="20" height="20" as="geometry" />
        </mxCell>
        <mxCell id="JAy8X70x3TuNzc0FsqqA-20" style="edgeStyle=orthogonalEdgeStyle;rounded=0;orthogonalLoop=1;jettySize=auto;html=1;exitX=1;exitY=0.5;exitDx=0;exitDy=0;exitPerimeter=0;entryX=0.5;entryY=1;entryDx=0;entryDy=0;" edge="1" parent="1" source="JAy8X70x3TuNzc0FsqqA-15" target="JAy8X70x3TuNzc0FsqqA-18">
          <mxGeometry relative="1" as="geometry" />
        </mxCell>
        <mxCell id="JAy8X70x3TuNzc0FsqqA-15" value="" style="verticalLabelPosition=bottom;shadow=0;dashed=0;align=center;html=1;verticalAlign=top;shape=mxgraph.electrical.logic_gates.lowpass_filter;points=[[0,0.5,0,0,0],[0.5,1,0,0,0],[1,0.5,0,0,0]];fillColor=#d5e8d4;strokeColor=#000000;" vertex="1" parent="1">
          <mxGeometry x="160" y="300" width="80" height="60" as="geometry" />
        </mxCell>
        <mxCell id="JAy8X70x3TuNzc0FsqqA-19" style="edgeStyle=orthogonalEdgeStyle;rounded=0;orthogonalLoop=1;jettySize=auto;html=1;exitX=1;exitY=0.5;exitDx=0;exitDy=0;exitPerimeter=0;entryX=0.25;entryY=1;entryDx=0;entryDy=0;" edge="1" parent="1" source="JAy8X70x3TuNzc0FsqqA-16" target="JAy8X70x3TuNzc0FsqqA-18">
          <mxGeometry relative="1" as="geometry">
            <Array as="points">
              <mxPoint x="280" y="230" />
              <mxPoint x="280" y="305" />
            </Array>
          </mxGeometry>
        </mxCell>
        <mxCell id="JAy8X70x3TuNzc0FsqqA-16" value="" style="verticalLabelPosition=bottom;shadow=0;dashed=0;align=center;html=1;verticalAlign=top;shape=mxgraph.electrical.logic_gates.lowpass_filter;points=[[0,0.5,0,0,0],[0.5,1,0,0,0],[1,0.5,0,0,0]];fillColor=#d5e8d4;strokeColor=#000000;" vertex="1" parent="1">
          <mxGeometry x="160" y="200" width="80" height="60" as="geometry" />
        </mxCell>
        <mxCell id="JAy8X70x3TuNzc0FsqqA-14" style="edgeStyle=orthogonalEdgeStyle;rounded=0;orthogonalLoop=1;jettySize=auto;html=1;entryX=0.5;entryY=1;entryDx=0;entryDy=0;entryPerimeter=0;jumpStyle=arc;fillColor=#008a00;strokeColor=#005700;" edge="1" parent="1" source="JAy8X70x3TuNzc0FsqqA-11" target="JAy8X70x3TuNzc0FsqqA-15">
          <mxGeometry relative="1" as="geometry">
            <mxPoint x="130" y="480" as="targetPoint" />
            <Array as="points">
              <mxPoint x="140" y="510" />
              <mxPoint x="140" y="380" />
              <mxPoint x="200" y="380" />
            </Array>
          </mxGeometry>
        </mxCell>
        <mxCell id="JAy8X70x3TuNzc0FsqqA-17" style="edgeStyle=orthogonalEdgeStyle;rounded=0;orthogonalLoop=1;jettySize=auto;html=1;entryX=0.5;entryY=1;entryDx=0;entryDy=0;entryPerimeter=0;jumpStyle=arc;fillColor=#008a00;strokeColor=#005700;" edge="1" parent="1" source="JAy8X70x3TuNzc0FsqqA-11" target="JAy8X70x3TuNzc0FsqqA-16">
          <mxGeometry relative="1" as="geometry">
            <Array as="points">
              <mxPoint x="140" y="510" />
              <mxPoint x="140" y="280" />
              <mxPoint x="200" y="280" />
            </Array>
          </mxGeometry>
        </mxCell>
        <mxCell id="JAy8X70x3TuNzc0FsqqA-18" value="" style="shape=trapezoid;perimeter=trapezoidPerimeter;whiteSpace=wrap;html=1;fixedSize=1;rotation=90;" vertex="1" parent="1">
          <mxGeometry x="290" y="315" width="100" height="30" as="geometry" />
        </mxCell>
        <mxCell id="JAy8X70x3TuNzc0FsqqA-26" style="edgeStyle=orthogonalEdgeStyle;rounded=0;orthogonalLoop=1;jettySize=auto;html=1;entryX=0.5;entryY=0;entryDx=0;entryDy=0;startArrow=oval;startFill=1;endArrow=none;endFill=0;" edge="1" parent="1" source="JAy8X70x3TuNzc0FsqqA-25" target="JAy8X70x3TuNzc0FsqqA-18">
          <mxGeometry relative="1" as="geometry" />
        </mxCell>
        <mxCell id="JAy8X70x3TuNzc0FsqqA-25" value="" style="shape=waypoint;sketch=0;fillStyle=solid;size=6;pointerEvents=1;points=[];fillColor=none;resizable=0;rotatable=0;perimeter=centerPerimeter;snapToPoint=1;" vertex="1" parent="1">
          <mxGeometry x="394" y="320" width="20" height="20" as="geometry" />
        </mxCell>
        <mxCell id="JAy8X70x3TuNzc0FsqqA-27" value="o_data_IQ" style="text;html=1;align=center;verticalAlign=middle;resizable=0;points=[];autosize=1;strokeColor=none;fillColor=none;" vertex="1" parent="1">
          <mxGeometry x="374" y="294" width="80" height="30" as="geometry" />
        </mxCell>
        <mxCell id="JAy8X70x3TuNzc0FsqqA-28" value="o_doa" style="text;html=1;align=center;verticalAlign=middle;resizable=0;points=[];autosize=1;strokeColor=none;fillColor=none;" vertex="1" parent="1">
          <mxGeometry x="374" y="330" width="60" height="30" as="geometry" />
        </mxCell>
        <mxCell id="JAy8X70x3TuNzc0FsqqA-29" value="LPF1M" style="text;html=1;align=center;verticalAlign=middle;resizable=0;points=[];autosize=1;strokeColor=none;fillColor=none;" vertex="1" parent="1">
          <mxGeometry x="160" y="230" width="60" height="30" as="geometry" />
        </mxCell>
        <mxCell id="JAy8X70x3TuNzc0FsqqA-30" value="LPF2M" style="text;html=1;align=center;verticalAlign=middle;resizable=0;points=[];autosize=1;strokeColor=none;fillColor=none;" vertex="1" parent="1">
          <mxGeometry x="160" y="330" width="60" height="30" as="geometry" />
        </mxCell>
        <mxCell id="JAy8X70x3TuNzc0FsqqA-31" value="LPF8" style="text;html=1;align=center;verticalAlign=middle;resizable=0;points=[];autosize=1;strokeColor=none;fillColor=none;" vertex="1" parent="1">
          <mxGeometry x="160" y="430" width="50" height="30" as="geometry" />
        </mxCell>
      </root>
    </mxGraphModel>
  </diagram>
</mxfile>
